<?xml version="1.0" encoding="UTF-8" standalone="no"?>
<!-- Created with Inkscape (http://www.inkscape.org/) -->

<svg
   width="129.74384mm"
   height="145.11189mm"
   viewBox="0 0 129.74384 145.1119"
   version="1.1"
   id="svg1"
   xml:space="preserve"
   inkscape:version="1.4.2 (f4327f4, 2025-05-13)"
   sodipodi:docname="drawing.svg"
   xmlns:inkscape="http://www.inkscape.org/namespaces/inkscape"
   xmlns:sodipodi="http://sodipodi.sourceforge.net/DTD/sodipodi-0.dtd"
   xmlns:xlink="http://www.w3.org/1999/xlink"
   xmlns="http://www.w3.org/2000/svg"
   xmlns:svg="http://www.w3.org/2000/svg"><sodipodi:namedview
     id="namedview1"
     pagecolor="#ffffff"
     bordercolor="#000000"
     borderopacity="0.25"
     inkscape:showpageshadow="2"
     inkscape:pageopacity="0.0"
     inkscape:pagecheckerboard="0"
     inkscape:deskcolor="#d1d1d1"
     inkscape:document-units="mm"
     inkscape:zoom="0.71891835"
     inkscape:cx="-16.691743"
     inkscape:cy="230.20695"
     inkscape:window-width="2560"
     inkscape:window-height="1009"
     inkscape:window-x="1912"
     inkscape:window-y="-8"
     inkscape:window-maximized="1"
     inkscape:current-layer="g50"><sodipodi:guide
       position="0,145.1119"
       orientation="0,490.3704"
       id="guide65"
       inkscape:locked="false" /><sodipodi:guide
       position="129.74384,145.1119"
       orientation="548.4544,0"
       id="guide66"
       inkscape:locked="false" /><sodipodi:guide
       position="129.74384,0"
       orientation="0,-490.3704"
       id="guide67"
       inkscape:locked="false" /><sodipodi:guide
       position="0,0"
       orientation="-548.4544,0"
       id="guide68"
       inkscape:locked="false" /></sodipodi:namedview><defs
     id="defs1"><linearGradient
       id="linearGradient64"
       inkscape:collect="always"><stop
         style="stop-color:#1a3187;stop-opacity:1;"
         offset="0"
         id="stop64" /><stop
         style="stop-color:#304dbd;stop-opacity:1;"
         offset="1"
         id="stop65" /></linearGradient><linearGradient
       id="linearGradient62"
       inkscape:collect="always"><stop
         style="stop-color:#0b8f8a;stop-opacity:1;"
         offset="0"
         id="stop62" /><stop
         style="stop-color:#108572;stop-opacity:0.21122994;"
         offset="1"
         id="stop63" /></linearGradient><linearGradient
       id="linearGradient58"
       inkscape:collect="always"><stop
         style="stop-color:#0a948c;stop-opacity:1;"
         offset="0"
         id="stop58" /><stop
         style="stop-color:#12957c;stop-opacity:0.45721924;"
         offset="1"
         id="stop59" /></linearGradient><inkscape:path-effect
       effect="fill_between_many"
       method="originald"
       linkedpaths="#path53,0,1|#path52,0,1|#path50,0,1"
       id="path-effect53"
       is_visible="true"
       lpeversion="0"
       join="true"
       close="true"
       autoreverse="true" /><linearGradient
       inkscape:collect="always"
       xlink:href="#linearGradient58"
       id="linearGradient59"
       x1="101.55809"
       y1="126.04295"
       x2="191.76183"
       y2="52.997398"
       gradientUnits="userSpaceOnUse" /><linearGradient
       inkscape:collect="always"
       xlink:href="#linearGradient62"
       id="linearGradient63"
       x1="106.95128"
       y1="176.32396"
       x2="196.50381"
       y2="255.50012"
       gradientUnits="userSpaceOnUse" /><linearGradient
       inkscape:collect="always"
       xlink:href="#linearGradient64"
       id="linearGradient65"
       x1="15.580964"
       y1="157.83871"
       x2="111.69791"
       y2="144.33035"
       gradientUnits="userSpaceOnUse" /></defs><g
     inkscape:label="Layer 1"
     inkscape:groupmode="layer"
     id="layer1"
     transform="translate(-41.4744,-71.928096)"><g
       id="g50"
       transform="translate(-283.6576)"><path
         inkscape:original-d="M 0,0"
         inkscape:path-effect="#path-effect53"
         d="M 0,0"
         id="path54"
         transform="matrix(0.72337082,0,0,0.72512536,314.20283,13.532289)" /><path
         style="fill:url(#linearGradient59)"
         d="m 147.44343,120.71615 c 14.7955,-14.80675 27.56421,-27.754793 28.37492,-28.773439 1.55782,-1.95738 3.50642,-5.154605 4.40361,-7.225366 0.2958,-0.682715 1.34497,-3.62255 2.33149,-6.532967 0.98652,-2.910416 3.06804,-8.982603 4.6256,-13.493749 3.34259,-9.681106 4.07853,-11.943034 4.17513,-12.832291 l 0.0719,-0.661458 -18.25625,0.0019 c -18.03546,0.0019 -18.28432,0.009 -20.57727,0.594304 -4.86464,1.241658 -8.18384,2.876707 -12.23106,6.025063 -2.37142,1.844736 -54.239584,53.977533 -54.239584,54.516313 0,0.18866 1.785937,2.16689 3.968749,4.39608 2.182813,2.22918 9.041601,9.23198 15.241755,15.56179 6.20015,6.3298 12.08751,12.37193 13.08304,13.42696 0.99552,1.05503 1.88138,1.91823 1.96857,1.91823 0.0872,0 12.26395,-12.11461 27.05944,-26.92135 z"
         transform="matrix(0.72337082,0,0,0.72512536,314.20283,34.871668)"
         id="path57" /><path
         style="fill:url(#linearGradient65)"
         d="m 45.836469,250.69729 c 11.257313,-1.96311 19.79618,-10.51301 21.773101,-21.80122 0.323453,-1.84692 0.388348,-6.49502 0.388348,-27.81517 v -25.59769 l 5.804375,5.85322 5.804374,5.85322 L 95.895,170.92652 c 8.95858,-8.94472 16.28241,-16.32591 16.27518,-16.40264 -0.007,-0.0767 -7.61436,-7.81452 -16.904718,-17.19509 l -16.891566,-17.05559 -5.121843,5.25523 -5.121843,5.25523 -0.136121,-28.81318 C 67.858623,73.296042 67.855167,73.147405 67.276459,71.10345 63.660083,58.33068 52.840772,50.460035 39.84051,51.144824 c -4.593931,0.241985 -9.190725,1.697033 -12.722035,4.026974 -2.250262,1.484712 -6.033839,5.204325 -7.429887,7.30428 -1.541943,2.319415 -3.088654,5.645211 -3.860022,8.299967 l -0.61502,2.116667 -0.07623,76.596868 c -0.0689,69.23233 -0.03547,76.84522 0.34762,79.17988 0.898877,5.47794 3.179973,10.18396 6.866405,14.16574 5.809284,6.27472 14.980918,9.3451 23.485124,7.86209 z"
         transform="matrix(0.72337082,0,0,0.72512536,314.20283,34.871668)"
         id="path56" /><path
         style="fill:url(#linearGradient63)"
         d="m 179.05677,250.91992 15.41197,-0.14482 v -0.68118 c 0,-0.72331 -1.68318,-5.70533 -5.42926,-16.06997 -1.2623,-3.4925 -3.01188,-8.37406 -3.88797,-10.84791 -1.74309,-4.92204 -3.05931,-7.74416 -4.93602,-10.58334 -0.87488,-1.32355 -7.60203,-8.30769 -23.57344,-24.47395 -12.29206,-12.44203 -24.40353,-24.70491 -26.91438,-27.25083 l -4.56518,-4.62896 -5.3651,5.34591 c -2.9508,2.94025 -10.94042,10.92772 -17.7547,17.74993 l -12.389603,12.40402 12.125023,12.27652 c 6.66876,6.75208 15.57783,15.78729 19.79793,20.07822 19.50837,19.83582 20.50842,20.77227 24.73854,23.16517 2.32122,1.31307 5.19167,2.43127 7.88042,3.06984 2.50949,0.59601 6.79691,1.03255 8.39145,0.85441 0.58209,-0.065 7.99373,-0.1834 16.47032,-0.26306 z"
         transform="matrix(0.72337082,0,0,0.72512536,314.20283,34.871668)"
         id="path55" /></g></g></svg>
