<svg width="299" height="52" viewBox="0 0 299 52" fill="none" xmlns="http://www.w3.org/2000/svg">
<path d="M5.14286 0.57143H10.2857V5.71428H5.14286V0.57143ZM0 0.57143H5.14286V5.71428H0V0.57143ZM0 5.71428H5.14286V10.8571H0V5.71428ZM0 10.8571H5.14286V16H0V10.8571ZM0 16H5.14286V21.1429H0V16ZM0 21.1429H5.14286V26.2857H0V21.1429ZM0 26.2857H5.14286V31.4286H0V26.2857ZM0 31.4286H5.14286V36.5714H0V31.4286ZM0 36.5714H5.14286V41.7143H0V36.5714ZM0 41.7143H5.14286V46.8571H0V41.7143ZM0 46.8571H5.14286V52H0V46.8571ZM5.14286 46.8571H10.2857V52H5.14286V46.8571ZM5.14286 41.7143H10.2857V46.8571H5.14286V41.7143ZM5.14286 36.5714H10.2857V41.7143H5.14286V36.5714ZM5.14286 31.4286H10.2857V36.5714H5.14286V31.4286ZM5.14286 26.2857H10.2857V31.4286H5.14286V26.2857ZM5.14286 21.1429H10.2857V26.2857H5.14286V21.1429ZM5.14286 16H10.2857V21.1429H5.14286V16ZM5.14286 10.8571H10.2857V16H5.14286V10.8571ZM5.14286 5.71428H10.2857V10.8571H5.14286V5.71428ZM10.2857 26.2857H15.4286V31.4286H10.2857V26.2857ZM15.4286 26.2857H20.5714V31.4286H15.4286V26.2857ZM15.4286 21.1429H20.5714V26.2857H15.4286V21.1429ZM10.2857 21.1429H15.4286V26.2857H10.2857V21.1429ZM15.4286 16H20.5714V21.1429H15.4286V16ZM20.5714 16H25.7143V21.1429H20.5714V16ZM20.5714 10.8571H25.7143V16H20.5714V10.8571ZM20.5714 5.71428H25.7143V10.8571H20.5714V5.71428ZM20.5714 0.57143H25.7143V5.71428H20.5714V0.57143ZM25.7143 0.57143H30.8571V5.71428H25.7143V0.57143ZM25.7143 5.71428H30.8571V10.8571H25.7143V5.71428ZM25.7143 10.8571H30.8571V16H25.7143V10.8571ZM15.4286 31.4286H20.5714V36.5714H15.4286V31.4286ZM20.5714 31.4286H25.7143V36.5714H20.5714V31.4286ZM20.5714 36.5714H25.7143V41.7143H20.5714V36.5714ZM20.5714 41.7143H25.7143V46.8571H20.5714V41.7143ZM20.5714 46.8571H25.7143V52H20.5714V46.8571ZM25.7143 46.8571H30.8571V52H25.7143V46.8571ZM25.7143 41.7143H30.8571V46.8571H25.7143V41.7143ZM25.7143 36.5714H30.8571V41.7143H25.7143V36.5714ZM25.7143 31.4286H30.8571V36.5714H25.7143V31.4286ZM20.5714 26.2857H25.7143V31.4286H20.5714V26.2857Z" fill="#423872"/>
<path d="M46.2857 10.8571H51.4286V16H46.2857V10.8571ZM41.1429 10.8571H46.2857V16H41.1429V10.8571ZM41.1429 16H46.2857V21.1429H41.1429V16ZM46.2857 16H51.4286V21.1429H46.2857V16ZM51.4286 10.8571H56.5714V16H51.4286V10.8571ZM56.5714 10.8571H61.7143V16H56.5714V10.8571ZM61.7143 10.8571H66.8571V16H61.7143V10.8571ZM61.7143 16H66.8571V21.1429H61.7143V16ZM56.5714 16H61.7143V21.1429H56.5714V16ZM61.7143 26.2857H66.8571V31.4286H61.7143V26.2857ZM66.8571 16H72V21.1429H66.8571V16ZM66.8571 21.1429H72V26.2857H66.8571V21.1429ZM66.8571 26.2857H72V31.4286H66.8571V26.2857ZM66.8571 31.4286H72V36.5714H66.8571V31.4286ZM66.8571 36.5714H72V41.7143H66.8571V36.5714ZM66.8571 41.7143H72V46.8571H66.8571V41.7143ZM61.7143 41.7143H66.8571V46.8571H61.7143V41.7143ZM61.7143 36.5714H66.8571V41.7143H61.7143V36.5714ZM61.7143 31.4286H66.8571V36.5714H61.7143V31.4286ZM61.7143 21.1429H66.8571V26.2857H61.7143V21.1429ZM56.5714 41.7143H61.7143V46.8571H56.5714V41.7143ZM61.7143 46.8571H66.8571V52H61.7143V46.8571ZM56.5714 46.8571H61.7143V52H56.5714V46.8571ZM51.4286 46.8571H56.5714V52H51.4286V46.8571ZM46.2857 46.8571H51.4286V52H46.2857V46.8571ZM41.1429 46.8571H46.2857V52H41.1429V46.8571ZM41.1429 41.7143H46.2857V46.8571H41.1429V41.7143ZM46.2857 41.7143H51.4286V46.8571H46.2857V41.7143ZM41.1429 36.5714H46.2857V41.7143H41.1429V36.5714ZM36 41.7143H41.1429V46.8571H36V41.7143ZM36 36.5714H41.1429V41.7143H36V36.5714ZM36 31.4286H41.1429V36.5714H36V31.4286ZM36 26.2857H41.1429V31.4286H36V26.2857ZM36 21.1429H41.1429V26.2857H36V21.1429ZM36 16H41.1429V21.1429H36V16ZM41.1429 21.1429H46.2857V26.2857H41.1429V21.1429ZM41.1429 26.2857H46.2857V31.4286H41.1429V26.2857ZM41.1429 31.4286H46.2857V36.5714H41.1429V31.4286ZM51.4286 41.7143H56.5714V46.8571H51.4286V41.7143ZM51.4286 16H56.5714V21.1429H51.4286V16ZM77.1562 16H82.2991V21.1429H77.1562V16ZM77.1562 10.8571H82.2991V16H77.1562V10.8571ZM82.2991 10.8571H87.442V16H82.2991V10.8571ZM82.2991 16H87.442V21.1429H82.2991V16ZM82.2991 21.1429H87.442V26.2857H82.2991V21.1429ZM82.2991 26.2857H87.442V31.4286H82.2991V26.2857ZM82.2991 31.4286H87.442V36.5714H82.2991V31.4286ZM77.1562 31.4286H82.2991V36.5714H77.1562V31.4286ZM77.1562 26.2857H82.2991V31.4286H77.1562V26.2857ZM77.1562 21.1429H82.2991V26.2857H77.1562V21.1429ZM77.1562 36.5714H82.2991V41.7143H77.1562V36.5714ZM82.2991 36.5714H87.442V41.7143H82.2991V36.5714ZM82.2991 41.7143H87.442V46.8571H82.2991V41.7143ZM82.2991 46.8571H87.442V52H82.2991V46.8571ZM77.1562 46.8571H82.2991V52H77.1562V46.8571ZM77.1562 41.7143H82.2991V46.8571H77.1562V41.7143ZM102.871 46.8571H108.013V52H102.871V46.8571ZM108.013 46.8571H113.156V52H108.013V46.8571ZM108.013 41.7143H113.156V46.8571H108.013V41.7143ZM108.013 36.5714H113.156V41.7143H108.013V36.5714ZM108.013 31.4286H113.156V36.5714H108.013V31.4286ZM108.013 26.2857H113.156V31.4286H108.013V26.2857ZM108.013 21.1429H113.156V26.2857H108.013V21.1429ZM108.013 16H113.156V21.1429H108.013V16ZM102.871 26.2857H108.013V31.4286H102.871V26.2857ZM102.871 31.4286H108.013V36.5714H102.871V31.4286ZM102.871 36.5714H108.013V41.7143H102.871V36.5714ZM102.871 41.7143H108.013V46.8571H102.871V41.7143ZM102.871 21.1429H108.013V26.2857H102.871V21.1429ZM87.442 16H92.5848V21.1429H87.442V16ZM92.5848 16H97.7277V21.1429H92.5848V16ZM97.7277 16H102.871V21.1429H97.7277V16ZM97.7277 10.8571H102.871V16H97.7277V10.8571ZM102.871 10.8571H108.013V16H102.871V10.8571ZM102.871 16H108.013V21.1429H102.871V16ZM92.5848 10.8571H97.7277V16H92.5848V10.8571ZM118.312 16H123.455V21.1429H118.312V16ZM118.312 10.8571H123.455V16H118.312V10.8571ZM123.455 10.8571H128.598V16H123.455V10.8571ZM123.455 16H128.598V21.1429H123.455V16ZM123.455 21.1429H128.598V26.2857H123.455V21.1429ZM123.455 26.2857H128.598V31.4286H123.455V26.2857ZM123.455 31.4286H128.598V36.5714H123.455V31.4286ZM118.312 31.4286H123.455V36.5714H118.312V31.4286ZM118.312 26.2857H123.455V31.4286H118.312V26.2857ZM118.312 21.1429H123.455V26.2857H118.312V21.1429ZM118.312 36.5714H123.455V41.7143H118.312V36.5714ZM123.455 36.5714H128.598V41.7143H123.455V36.5714ZM123.455 41.7143H128.598V46.8571H123.455V41.7143ZM123.455 46.8571H128.598V52H123.455V46.8571ZM118.312 46.8571H123.455V52H118.312V46.8571ZM118.312 41.7143H123.455V46.8571H118.312V41.7143ZM144.027 46.8571H149.17V52H144.027V46.8571ZM149.17 46.8571H154.312V52H149.17V46.8571ZM149.17 41.7143H154.312V46.8571H149.17V41.7143ZM149.17 36.5714H154.312V41.7143H149.17V36.5714ZM149.17 31.4286H154.312V36.5714H149.17V31.4286ZM149.17 26.2857H154.312V31.4286H149.17V26.2857ZM149.17 21.1429H154.312V26.2857H149.17V21.1429ZM149.17 16H154.312V21.1429H149.17V16ZM144.027 26.2857H149.17V31.4286H144.027V26.2857ZM144.027 31.4286H149.17V36.5714H144.027V31.4286ZM144.027 36.5714H149.17V41.7143H144.027V36.5714ZM144.027 41.7143H149.17V46.8571H144.027V41.7143ZM144.027 21.1429H149.17V26.2857H144.027V21.1429ZM128.598 16H133.741V21.1429H128.598V16ZM133.741 16H138.884V21.1429H133.741V16ZM138.884 16H144.027V21.1429H138.884V16ZM138.884 10.8571H144.027V16H138.884V10.8571ZM144.027 10.8571H149.17V16H144.027V10.8571ZM144.027 16H149.17V21.1429H144.027V16ZM133.741 10.8571H138.884V16H133.741V10.8571ZM169.754 10.8571H174.897V16H169.754V10.8571ZM164.612 10.8571H169.754V16H164.612V10.8571ZM164.612 16H169.754V21.1429H164.612V16ZM169.754 16H174.897V21.1429H169.754V16ZM174.897 10.8571H180.04V16H174.897V10.8571ZM180.04 10.8571H185.183V16H180.04V10.8571ZM185.183 10.8571H190.326V16H185.183V10.8571ZM185.183 16H190.326V21.1429H185.183V16ZM180.04 16H185.183V21.1429H180.04V16ZM190.326 16H195.469V21.1429H190.326V16ZM190.326 21.1429H195.469V26.2857H190.326V21.1429ZM190.326 41.7143H195.469V46.8571H190.326V41.7143ZM185.183 41.7143H190.326V46.8571H185.183V41.7143ZM185.183 21.1429H190.326V26.2857H185.183V21.1429ZM180.04 41.7143H185.183V46.8571H180.04V41.7143ZM185.183 46.8571H190.326V52H185.183V46.8571ZM180.04 46.8571H185.183V52H180.04V46.8571ZM174.897 46.8571H180.04V52H174.897V46.8571ZM169.754 46.8571H174.897V52H169.754V46.8571ZM164.612 46.8571H169.754V52H164.612V46.8571ZM164.612 41.7143H169.754V46.8571H164.612V41.7143ZM169.754 41.7143H174.897V46.8571H169.754V41.7143ZM164.612 36.5714H169.754V41.7143H164.612V36.5714ZM159.469 41.7143H164.612V46.8571H159.469V41.7143ZM159.469 36.5714H164.612V41.7143H159.469V36.5714ZM159.469 31.4286H164.612V36.5714H159.469V31.4286ZM159.469 26.2857H164.612V31.4286H159.469V26.2857ZM159.469 21.1429H164.612V26.2857H159.469V21.1429ZM159.469 16H164.612V21.1429H159.469V16ZM164.612 21.1429H169.754V26.2857H164.612V21.1429ZM164.612 26.2857H169.754V31.4286H164.612V26.2857ZM164.612 31.4286H169.754V36.5714H164.612V31.4286ZM174.897 41.7143H180.04V46.8571H174.897V41.7143ZM174.897 16H180.04V21.1429H174.897V16ZM185.183 26.2857H190.326V31.4286H185.183V26.2857ZM190.326 26.2857H195.469V31.4286H190.326V26.2857ZM169.754 31.4286H174.897V36.5714H169.754V31.4286ZM174.897 31.4286H180.04V36.5714H174.897V31.4286ZM180.04 31.4286H185.183V36.5714H180.04V31.4286ZM185.183 31.4286H190.326V36.5714H185.183V31.4286ZM190.326 31.4286H195.469V36.5714H190.326V31.4286ZM180.04 26.2857H185.183V31.4286H180.04V26.2857ZM174.897 26.2857H180.04V31.4286H174.897V26.2857ZM169.754 26.2857H174.897V31.4286H169.754V26.2857ZM200.625 0.57143H205.768V5.71428H200.625V0.57143ZM205.768 0.57143H210.911V5.71428H205.768V0.57143ZM205.768 5.71428H210.911V10.8571H205.768V5.71428ZM205.768 10.8571H210.911V16H205.768V10.8571ZM205.768 16H210.911V21.1429H205.768V16ZM200.625 16H205.768V21.1429H200.625V16ZM200.625 10.8571H205.768V16H200.625V10.8571ZM200.625 5.71428H205.768V10.8571H200.625V5.71428ZM200.625 21.1429H205.768V26.2857H200.625V21.1429ZM200.625 26.2857H205.768V31.4286H200.625V26.2857ZM200.625 31.4286H205.768V36.5714H200.625V31.4286ZM200.625 36.5714H205.768V41.7143H200.625V36.5714ZM200.625 41.7143H205.768V46.8571H200.625V41.7143ZM200.625 46.8571H205.768V52H200.625V46.8571ZM205.768 46.8571H210.911V52H205.768V46.8571ZM205.768 41.7143H210.911V46.8571H205.768V41.7143ZM205.768 36.5714H210.911V41.7143H205.768V36.5714ZM205.768 31.4286H210.911V36.5714H205.768V31.4286ZM205.768 26.2857H210.911V31.4286H205.768V26.2857ZM205.768 21.1429H210.911V26.2857H205.768V21.1429ZM210.911 26.2857H216.054V31.4286H210.911V26.2857ZM216.054 26.2857H221.196V31.4286H216.054V26.2857ZM216.054 21.1429H221.196V26.2857H216.054V21.1429ZM221.196 21.1429H226.339V26.2857H221.196V21.1429ZM221.196 16H226.339V21.1429H221.196V16ZM221.196 10.8571H226.339V16H221.196V10.8571ZM226.339 10.8571H231.482V16H226.339V10.8571ZM226.339 16H231.482V21.1429H226.339V16ZM216.054 31.4286H221.196V36.5714H216.054V31.4286ZM221.196 31.4286H226.339V36.5714H221.196V31.4286ZM226.339 36.5714H231.482V41.7143H226.339V36.5714ZM221.196 36.5714H226.339V41.7143H221.196V36.5714ZM221.196 41.7143H226.339V46.8571H221.196V41.7143ZM226.339 41.7143H231.482V46.8571H226.339V41.7143ZM226.339 46.8571H231.482V52H226.339V46.8571ZM221.196 46.8571H226.339V52H221.196V46.8571ZM257.196 41.7143H262.339V46.8571H257.196V41.7143ZM257.196 46.8571H262.339V52H257.196V46.8571ZM252.054 46.8571H257.196V52H252.054V46.8571ZM252.054 41.7143H257.196V46.8571H252.054V41.7143ZM246.911 46.8571H252.054V52H246.911V46.8571ZM246.911 41.7143H252.054V46.8571H246.911V41.7143ZM241.768 41.7143H246.911V46.8571H241.768V41.7143ZM241.768 36.5714H246.911V41.7143H241.768V36.5714ZM241.768 31.4286H246.911V36.5714H241.768V31.4286ZM241.768 26.2857H246.911V31.4286H241.768V26.2857ZM241.768 21.1429H246.911V26.2857H241.768V21.1429ZM241.768 16H246.911V21.1429H241.768V16ZM246.911 31.4286H252.054V36.5714H246.911V31.4286ZM246.911 36.5714H252.054V41.7143H246.911V36.5714ZM246.911 26.2857H252.054V31.4286H246.911V26.2857ZM246.911 21.1429H252.054V26.2857H246.911V21.1429ZM246.911 0.57143H252.054V5.71428H246.911V0.57143ZM246.911 5.71428H252.054V10.8571H246.911V5.71428ZM246.911 10.8571H252.054V16H246.911V10.8571ZM246.911 16H252.054V21.1429H246.911V16ZM241.768 10.8571H246.911V16H241.768V10.8571ZM236.625 16H241.768V21.1429H236.625V16ZM252.054 16H257.196V21.1429H252.054V16ZM257.196 16H262.339V21.1429H257.196V16ZM241.768 5.71428H246.911V10.8571H241.768V5.71428ZM236.625 21.1429H241.768V26.2857H236.625V21.1429ZM252.054 21.1429H257.196V26.2857H252.054V21.1429ZM257.196 21.1429H262.339V26.2857H257.196V21.1429ZM267.469 16H272.612V21.1429H267.469V16ZM267.469 10.8571H272.612V16H267.469V10.8571ZM272.612 10.8571H277.754V16H272.612V10.8571ZM272.612 16H277.754V21.1429H272.612V16ZM272.612 21.1429H277.754V26.2857H272.612V21.1429ZM272.612 26.2857H277.754V31.4286H272.612V26.2857ZM272.612 31.4286H277.754V36.5714H272.612V31.4286ZM267.469 31.4286H272.612V36.5714H267.469V31.4286ZM267.469 26.2857H272.612V31.4286H267.469V26.2857ZM267.469 21.1429H272.612V26.2857H267.469V21.1429ZM267.469 36.5714H272.612V41.7143H267.469V36.5714ZM272.612 36.5714H277.754V41.7143H272.612V36.5714ZM272.612 41.7143H277.754V46.8571H272.612V41.7143ZM272.612 46.8571H277.754V52H272.612V46.8571ZM267.469 46.8571H272.612V52H267.469V46.8571ZM267.469 41.7143H272.612V46.8571H267.469V41.7143ZM277.754 16H282.897V21.1429H277.754V16ZM282.897 16H288.04V21.1429H282.897V16ZM288.04 16H293.183V21.1429H288.04V16ZM288.04 10.8571H293.183V16H288.04V10.8571ZM282.897 10.8571H288.04V16H282.897V10.8571ZM277.754 21.1429H282.897V26.2857H277.754V21.1429ZM293.183 16H298.326V21.1429H293.183V16ZM288.04 21.1429H293.183V26.2857H288.04V21.1429Z" fill="#020817"/>
</svg>
